PathFileType   4   (X/Y/Z)
DataRate	CameraRate	NumFrames	NumMarkers	Units	OrigDataRate	OrigDataStartFrame	OrigNumFrames
120.0	120.0	12	37	mm	120.0	16	125
Frame#	Time	midhip	hip_r	hip_l	knee_r	knee_l	ankle_r	ankle_l	midasis	asis_r	asis_l	psis_r	psis_l	epicondLat_r	epicondLat_l	epicondMed_r	epicondMed_l	malleolusLat_r	malleolusLat_l	malleolusMedv_r	malleolusMedv_l	neck	subclavicle_r	subclavicle_l	sternalnotch	xyphoidprocess	thighwand_r	thighwand_l	upperleg1_r	upperleg1_l	upperleg2_r	upperleg2_l	shankwand_r	shankwand_l	lowerleg1_r	lowerleg1_l	toe_r	toe_l
 	 	X1	Y1	Z1	X2	Y2	Z2	X3	Y3	Z3	X4	Y4	Z4	X5	Y5	Z5	X6	Y6	Z6	X7	Y7	Z7	X8	Y8	Z8	X9	Y9	Z9	X10	Y10	Z10	X11	Y11	Z11	X12	Y12	Z12	X13	Y13	Z13	X14	Y14	Z14	X15	Y15	Z15	X16	Y16	Z16	X17	Y17	Z17	X18	Y18	Z18	X19	Y19	Z19	X20	Y20	Z20	X21	Y21	Z21	X22	Y22	Z22	X23	Y23	Z23	X24	Y24	Z24	X25	Y25	Z25	X26	Y26	Z26	X27	Y27	Z27	X28	Y28	Z28	X29	Y29	Z29	X30	Y30	Z30	X31	Y31	Z31	X32	Y32	Z32	X33	Y33	Z33	X34	Y34	Z34	X35	Y35	Z35	X36	Y36	Z36	X37	Y37	Z37

	16	0.25000	172.083	774.002	-293.208	145.943	773.806	-215.940	160.177	781.906	-370.705	270.119	397.934	-166.465	179.469	424.741	-340.108	1.016	173.417	-207.357	198.832	58.207	-315.343	280.635	848.704	-277.882	269.191	842.192	-153.452	292.078	855.216	-402.311	35.947	920.296	-262.437	37.467	922.774	-317.256	264.616	405.447	-95.574	183.367	418.856	-411.258	295.579	396.267	-231.310	158.344	426.710	-261.414	-7.608	176.950	-170.002	182.752	54.930	-351.273	14.347	180.060	-242.497	188.698	78.294	-275.180	68.550	1342.644	-293.248	197.338	1282.777	-248.159	200.237	1285.790	-330.430	182.580	1278.023	-302.372	238.848	1207.838	-301.664	369.911	613.551	-94.451	354.474	606.758	-349.766	330.411	617.762	-121.700	311.162	621.355	-361.635	336.566	540.407	-120.493	290.159	549.810	-355.166	162.701	198.836	-165.395	172.773	156.247	-426.065	139.063	239.839	-175.181	169.732	172.618	-381.814	58.922	85.325	-198.751	298.285	47.901	-319.981
	17	0.25833	180.056	774.646	-293.027	154.118	774.768	-215.696	167.952	782.093	-370.536	286.396	400.640	-167.483	183.117	425.071	-339.597	25.359	168.002	-207.173	199.162	58.191	-315.086	288.670	849.316	-278.360	277.537	843.421	-153.745	299.803	855.212	-402.974	44.139	920.984	-262.563	45.497	923.277	-317.432	281.726	408.132	-96.530	186.594	419.052	-410.758	312.227	398.932	-232.299	167.474	424.710	-257.629	16.740	171.296	-169.795	182.845	55.083	-350.923	36.695	174.593	-242.344	189.811	78.628	-274.878	77.121	1342.963	-293.557	206.033	1282.873	-248.345	208.824	1285.883	-330.481	191.109	1278.133	-302.423	247.388	1207.888	-301.839	383.255	618.434	-96.908	360.053	605.220	-350.377	342.603	621.316	-123.327	315.531	620.418	-361.705	351.288	544.364	-122.377	295.867	549.564	-354.599	186.189	198.710	-165.761	173.371	156.455	-425.736	157.695	238.830	-175.556	170.821	173.183	-381.489	87.468	83.050	-198.447	298.494	47.646	-319.999
	18	0.26667	188.123	775.301	-292.857	162.378	775.753	-215.389	175.721	782.216	-370.311	302.354	403.347	-168.727	187.021	425.383	-339.039	50.231	161.985	-207.053	199.476	58.172	-314.795	296.692	850.018	-278.893	285.958	844.818	-154.258	307.427	855.217	-403.529	52.287	921.522	-262.643	53.462	923.681	-317.504	298.475	410.786	-97.721	190.049	419.241	-410.210	328.248	402.911	-235.132	173.058	425.309	-255.527	41.613	165.048	-169.655	182.981	55.251	-350.566	62.086	169.271	-242.310	190.315	78.841	-274.505	85.601	1343.386	-293.907	214.399	1282.821	-248.471	215.930	1285.041	-332.270	199.695	1278.152	-302.443	254.322	1207.006	-302.666	396.282	623.165	-99.378	365.796	603.739	-351.008	354.852	625.465	-125.128	321.086	619.550	-362.210	365.580	548.360	-124.886	301.252	548.955	-354.400	209.954	198.471	-166.206	174.208	156.671	-425.339	181.999	237.743	-175.866	171.808	173.841	-381.030	116.452	80.443	-198.051	298.770	47.354	-319.971
	19	0.27500	196.215	775.932	-292.634	170.711	776.720	-215.009	183.452	782.263	-370.017	318.004	406.042	-170.168	191.154	425.661	-338.443	75.655	155.461	-206.984	199.760	58.153	-314.490	304.694	850.753	-279.475	294.461	846.301	-154.977	314.928	855.205	-403.973	60.400	921.901	-262.627	61.381	923.985	-317.449	314.882	413.396	-99.116	193.701	419.414	-409.624	343.086	406.672	-237.216	175.106	427.047	-256.957	67.036	158.300	-169.568	183.147	55.435	-350.223	87.234	162.797	-242.336	190.509	78.900	-274.114	94.379	1343.900	-293.664	222.675	1282.599	-248.494	225.923	1285.256	-330.162	208.301	1278.113	-302.458	263.539	1206.987	-301.252	408.994	627.687	-101.855	371.724	602.316	-351.672	367.718	629.427	-127.279	328.116	618.574	-362.357	379.270	552.564	-127.097	306.201	547.742	-355.041	233.958	198.168	-166.732	175.278	156.905	-424.893	204.637	236.236	-176.593	172.959	174.356	-380.509	145.866	77.595	-197.531	299.085	47.046	-319.916
	20	0.28333	204.250	776.506	-292.273	179.094	777.632	-214.553	191.117	782.229	-369.649	333.337	408.707	-171.759	195.470	425.892	-337.827	101.643	148.534	-206.947	200.003	58.144	-314.187	312.667	851.464	-280.093	303.038	847.782	-155.866	322.297	855.146	-404.320	68.491	922.132	-262.470	69.274	924.189	-317.244	330.956	415.958	-100.667	197.504	419.559	-409.017	356.898	409.881	-238.641	179.144	426.807	-257.986	93.018	151.153	-169.517	183.331	55.642	-349.908	112.520	155.843	-242.416	190.884	78.816	-273.769	103.416	1344.172	-293.176	231.202	1282.499	-248.311	234.973	1285.148	-330.038	216.910	1278.090	-302.466	272.139	1206.749	-300.855	421.423	631.936	-104.357	377.821	600.930	-352.373	380.616	632.952	-129.430	333.679	617.652	-363.104	392.516	556.436	-129.036	310.989	546.391	-355.904	258.150	197.854	-167.309	176.541	157.161	-424.418	226.463	234.557	-177.423	174.559	174.369	-380.095	175.707	74.595	-196.880	299.413	46.749	-319.851
	21	0.29167	212.194	777.005	-291.789	187.502	778.454	-214.026	198.696	782.112	-369.209	348.302	411.314	-173.448	199.902	426.062	-337.211	128.208	141.309	-206.926	200.226	58.155	-313.889	320.605	852.094	-280.728	311.670	849.174	-156.861	329.540	855.014	-404.594	76.580	922.237	-262.132	77.169	924.299	-316.878	346.668	418.460	-102.324	201.405	419.668	-408.409	369.929	413.222	-240.166	185.381	426.140	-255.927	119.556	143.719	-169.488	183.527	55.876	-349.613	138.742	148.500	-242.487	191.145	78.608	-273.390	112.003	1344.263	-293.011	240.078	1282.175	-248.305	243.636	1285.062	-330.249	225.494	1278.093	-302.510	280.782	1206.531	-301.286	433.594	635.864	-106.905	384.033	599.545	-353.096	392.179	636.438	-130.733	337.763	616.776	-364.106	405.608	559.960	-130.959	315.668	545.802	-356.118	282.474	197.594	-167.882	177.921	157.446	-423.936	249.281	232.440	-178.285	176.219	174.431	-379.492	205.968	71.541	-196.093	299.728	46.495	-319.788
	22	0.30000	220.062	777.402	-291.278	195.910	779.157	-213.447	206.191	781.922	-368.712	362.825	413.818	-175.179	204.373	426.173	-336.607	155.351	133.899	-206.906	200.468	58.189	-313.584	328.512	852.598	-281.356	320.336	850.399	-157.891	336.687	854.797	-404.822	84.694	922.240	-261.612	85.089	924.327	-316.343	361.968	420.879	-104.034	205.344	419.742	-407.810	384.463	415.751	-241.270	191.618	425.977	-254.185	146.636	136.115	-169.471	183.745	56.132	-349.311	166.333	141.364	-242.517	191.590	78.232	-272.988	120.248	1344.293	-293.116	248.760	1281.987	-248.434	252.011	1285.320	-330.184	234.110	1278.128	-302.570	289.364	1206.683	-301.883	445.529	639.431	-109.530	390.288	598.109	-353.801	402.889	639.504	-131.888	343.122	615.687	-364.463	418.932	563.190	-132.838	321.075	545.439	-356.222	306.870	197.456	-168.384	179.329	157.765	-423.463	274.265	230.245	-178.926	177.983	174.749	-378.514	236.633	68.533	-195.162	300.021	46.306	-319.738
	23	0.30833	227.883	777.662	-290.778	204.312	779.710	-212.854	213.642	781.663	-368.191	376.764	416.149	-176.940	208.796	426.242	-336.017	183.062	126.426	-206.885	200.766	58.243	-313.261	336.411	852.938	-281.960	329.019	851.391	-158.890	343.803	854.485	-405.030	92.856	922.166	-260.918	93.053	924.279	-315.635	376.731	423.162	-105.784	209.260	419.790	-407.224	399.357	417.837	-243.073	199.416	424.024	-254.037	174.230	128.464	-169.467	183.996	56.400	-348.977	193.167	133.287	-242.492	192.002	77.923	-272.593	128.658	1344.349	-293.141	257.066	1282.119	-248.502	260.108	1285.812	-330.758	242.628	1278.131	-302.716	297.622	1207.094	-302.623	457.233	642.616	-112.265	396.505	596.571	-354.434	414.156	642.198	-133.907	349.370	614.543	-364.631	432.088	565.812	-135.143	327.628	544.566	-356.678	331.280	197.499	-168.757	180.680	158.122	-423.012	295.444	228.430	-180.037	179.624	174.861	-377.652	267.666	65.671	-194.093	300.291	46.194	-319.701
	24	0.31667	235.677	777.783	-290.296	212.715	780.092	-212.285	221.104	781.337	-367.683	390.009	418.229	-178.722	213.096	426.290	-335.436	211.334	119.012	-206.864	201.143	58.310	-312.909	344.344	853.089	-282.525	337.719	852.106	-159.804	350.969	854.073	-405.245	101.084	922.033	-260.061	101.067	924.161	-314.763	390.860	425.246	-107.572	213.102	419.822	-406.643	410.489	419.901	-244.376	207.082	421.354	-253.999	202.311	120.885	-169.484	184.289	56.673	-348.596	221.708	125.271	-242.425	192.053	78.203	-272.200	137.272	1344.325	-292.928	265.503	1281.907	-248.657	268.576	1285.923	-331.210	251.114	1278.084	-302.871	306.024	1207.066	-303.209	468.712	645.407	-115.150	402.606	594.891	-354.945	425.486	644.735	-136.193	354.866	613.332	-364.792	443.772	568.408	-137.365	333.624	543.364	-357.123	355.633	197.773	-168.964	181.927	158.511	-422.584	318.739	226.542	-180.995	180.783	175.033	-377.409	299.010	63.059	-192.906	300.550	46.156	-319.669
	25	0.32500	243.510	777.756	-289.881	221.149	780.284	-211.759	228.630	780.939	-367.206	402.479	420.006	-180.517	217.227	426.330	-334.851	240.162	111.778	-206.855	201.591	58.388	-312.524	352.350	853.037	-283.042	346.457	852.521	-160.597	358.244	853.553	-405.488	109.387	921.853	-259.051	109.130	923.975	-313.747	404.285	427.083	-109.391	216.840	419.845	-406.055	419.019	421.147	-244.240	212.862	420.009	-253.146	230.866	113.484	-169.533	184.621	56.947	-348.164	250.975	117.823	-242.346	193.474	78.800	-271.911	146.071	1344.239	-292.881	274.159	1281.556	-248.795	277.255	1285.708	-331.355	259.568	1277.953	-303.012	314.568	1206.741	-303.473	479.956	647.799	-118.214	408.548	593.062	-355.294	436.292	646.820	-138.565	360.098	611.624	-364.909	454.324	570.832	-139.282	338.896	542.029	-357.159	379.853	198.323	-168.992	183.070	158.922	-422.168	342.468	224.896	-181.610	182.500	175.498	-377.438	330.582	60.790	-191.630	300.805	46.174	-319.637
	26	0.33333	251.491	777.548	-289.568	229.648	780.278	-211.261	236.253	780.465	-366.749	414.147	421.445	-182.305	221.189	426.361	-334.247	269.478	104.854	-206.861	202.080	58.475	-312.103	360.463	852.783	-283.501	355.270	852.636	-161.234	365.657	852.930	-405.769	117.767	921.622	-257.902	117.235	923.719	-312.613	416.987	428.641	-111.224	220.476	419.856	-405.447	427.712	422.478	-245.381	218.733	418.347	-252.083	259.833	106.373	-169.619	184.979	57.221	-347.687	280.261	111.115	-242.324	195.641	79.209	-271.632	155.011	1344.219	-293.159	282.846	1281.267	-248.963	285.732	1285.448	-331.361	267.995	1277.707	-303.107	322.927	1206.379	-303.702	490.954	649.790	-121.478	414.334	591.110	-355.456	446.753	648.587	-140.678	365.395	609.444	-364.793	465.145	572.419	-141.708	344.360	540.497	-356.949	403.875	199.185	-168.859	184.142	159.343	-421.746	365.477	223.401	-181.819	184.481	175.996	-377.241	362.277	58.949	-190.304	301.057	46.222	-319.613
	27	0.34167	259.658	777.147	-289.308	238.245	780.075	-210.759	243.985	779.912	-366.283	425.033	422.533	-184.066	225.023	426.376	-333.614	299.147	98.382	-206.880	202.559	58.575	-311.641	368.700	852.338	-283.888	364.190	852.467	-161.689	373.210	852.210	-406.087	126.223	921.332	-256.630	125.383	923.385	-311.382	428.983	429.898	-113.056	224.046	419.849	-404.808	436.180	423.606	-247.031	219.127	422.198	-254.093	289.106	99.667	-169.735	185.338	57.504	-347.173	309.480	105.740	-242.446	196.452	79.476	-271.149	163.638	1344.081	-293.113	291.199	1280.911	-249.150	294.359	1284.955	-331.048	276.431	1277.345	-303.103	331.276	1205.844	-303.409	501.668	651.371	-124.931	419.997	589.077	-355.428	457.311	649.947	-142.900	374.909	608.541	-363.984	475.947	573.517	-144.401	350.222	539.204	-357.005	427.632	200.374	-168.603	185.200	159.759	-421.294	388.161	222.500	-181.446	185.642	176.316	-376.800	393.965	57.596	-188.978	301.300	46.273	-319.616
